
<svg width="56" height="28" viewBox="0 0 56 28" fill="none" xmlns="http://www.w3.org/2000/svg">
<g clip-path="url(#clip0_9045_40594)">
<path d="M7.30953 27.39C6.24953 27.39 5.28953 27.3 4.42953 27.12C3.58953 26.94 2.87953 26.73 2.29953 26.49C1.71953 26.25 1.26953 26.02 0.949531 25.8L2.23953 23.1C2.51953 23.24 2.88953 23.41 3.34953 23.61C3.82953 23.83 4.38953 24.02 5.02953 24.18C5.66953 24.34 6.38953 24.42 7.18953 24.42C8.04953 24.42 8.81953 24.24 9.49953 23.88C10.1795 23.54 10.7095 23.01 11.0895 22.29C11.4695 21.57 11.6595 20.65 11.6595 19.53V6H15.0195V19.44C15.0195 21.14 14.6995 22.58 14.0595 23.76C13.4195 24.96 12.5195 25.86 11.3595 26.46C10.1995 27.08 8.84953 27.39 7.30953 27.39ZM6.79953 20.7C5.43953 20.7 4.24953 20.39 3.22953 19.77C2.22953 19.15 1.43953 18.29 0.859531 17.19C0.299531 16.07 0.0195312 14.78 0.0195312 13.32C0.0195312 11.76 0.299531 10.41 0.859531 9.27C1.43953 8.13 2.22953 7.24 3.22953 6.6C4.24953 5.96 5.43953 5.64 6.79953 5.64C8.01953 5.64 9.07953 5.96 9.97953 6.6C10.8995 7.24 11.6095 8.14 12.1095 9.3C12.6095 10.44 12.8595 11.79 12.8595 13.35C12.8595 14.83 12.6095 16.12 12.1095 17.22C11.6095 18.32 10.8995 19.18 9.97953 19.8C9.07953 20.4 8.01953 20.7 6.79953 20.7ZM7.72953 17.85C8.48953 17.85 9.14953 17.65 9.70953 17.25C10.2895 16.85 10.7395 16.31 11.0595 15.63C11.3795 14.93 11.5395 14.13 11.5395 13.23C11.5395 12.31 11.3795 11.51 11.0595 10.83C10.7395 10.13 10.2895 9.59 9.70953 9.21C9.12953 8.81 8.45953 8.61 7.69953 8.61C6.89953 8.61 6.18953 8.81 5.56953 9.21C4.96953 9.59 4.48953 10.13 4.12953 10.83C3.78953 11.51 3.61953 12.31 3.61953 13.23C3.61953 14.13 3.78953 14.93 4.12953 15.63C4.48953 16.31 4.97953 16.85 5.59953 17.25C6.21953 17.65 6.92953 17.85 7.72953 17.85ZM27.8806 21L27.7306 18.18V13.29C27.7306 12.27 27.6206 11.42 27.4006 10.74C27.2006 10.04 26.8606 9.51 26.3806 9.15C25.9206 8.77 25.3006 8.58 24.5206 8.58C23.8006 8.58 23.1706 8.73 22.6306 9.03C22.0906 9.33 21.6306 9.8 21.2506 10.44L18.3106 9.36C18.6306 8.7 19.0506 8.09 19.5706 7.53C20.1106 6.95 20.7806 6.49 21.5806 6.15C22.4006 5.81 23.3806 5.64 24.5206 5.64C25.9806 5.64 27.2006 5.93 28.1806 6.51C29.1606 7.07 29.8806 7.88 30.3406 8.94C30.8206 10 31.0606 11.28 31.0606 12.78L30.9706 21H27.8806ZM23.5606 21.36C21.7606 21.36 20.3606 20.96 19.3606 20.16C18.3806 19.36 17.8906 18.23 17.8906 16.77C17.8906 15.21 18.4106 14.02 19.4506 13.2C20.5106 12.38 21.9806 11.97 23.8606 11.97H27.8806V14.55H24.9406C23.6006 14.55 22.6606 14.74 22.1206 15.12C21.5806 15.48 21.3106 16 21.3106 16.68C21.3106 17.26 21.5406 17.72 22.0006 18.06C22.4806 18.38 23.1406 18.54 23.9806 18.54C24.7406 18.54 25.4006 18.37 25.9606 18.03C26.5206 17.69 26.9506 17.24 27.2506 16.68C27.5706 16.12 27.7306 15.49 27.7306 14.79H28.7206C28.7206 16.83 28.3106 18.44 27.4906 19.62C26.6706 20.78 25.3606 21.36 23.5606 21.36ZM34.463 21V0H37.823V21H34.463ZM48.2429 21.36C46.7829 21.36 45.4829 21.03 44.3429 20.37C43.2229 19.69 42.3329 18.76 41.6729 17.58C41.0329 16.4 40.7129 15.04 40.7129 13.5C40.7129 11.96 41.0429 10.6 41.7029 9.42C42.3629 8.24 43.2629 7.32 44.4029 6.66C45.5629 5.98 46.8829 5.64 48.3629 5.64C49.7029 5.64 50.9129 5.99 51.9929 6.69C53.0729 7.37 53.9229 8.36 54.5429 9.66C55.1829 10.96 55.5029 12.51 55.5029 14.31H43.7129L44.1629 13.89C44.1629 14.81 44.3629 15.61 44.7629 16.29C45.1629 16.95 45.6929 17.46 46.3529 17.82C47.0129 18.18 47.7429 18.36 48.5429 18.36C49.4629 18.36 50.2229 18.16 50.8229 17.76C51.4229 17.34 51.8929 16.8 52.2329 16.14L55.2029 17.4C54.7829 18.2 54.2429 18.9 53.5829 19.5C52.9429 20.1 52.1729 20.56 51.2729 20.88C50.3929 21.2 49.3829 21.36 48.2429 21.36ZM44.3729 12.15L43.8929 11.73H52.3529L51.9029 12.15C51.9029 11.33 51.7229 10.66 51.3629 10.14C51.0029 9.6 50.5429 9.2 49.9829 8.94C49.4429 8.66 48.8729 8.52 48.2729 8.52C47.6729 8.52 47.0729 8.66 46.4729 8.94C45.8729 9.2 45.3729 9.6 44.9729 10.14C44.5729 10.66 44.3729 11.33 44.3729 12.15Z" fill="black"/>
</g>
<defs>
<clipPath id="clip0_9045_40594">
<rect width="56" height="28" fill="white"/>
</clipPath>
</defs>
</svg>
