<svg width="195" height="121" viewBox="0 0 195 121" fill="none" xmlns="http://www.w3.org/2000/svg">
<path d="M34.34 97.46C28.74 97.46 23.78 96.0467 19.46 93.22C15.14 90.3933 11.7533 86.4733 9.3 81.46C6.84667 76.3933 5.62 70.6067 5.62 64.1C5.62 57.4867 6.9 51.6733 9.46 46.66C12.02 41.6467 15.5667 37.7533 20.1 34.98C24.6867 32.1533 29.9133 30.74 35.78 30.74C40.3667 30.74 44.4467 31.5933 48.02 33.3C51.6467 35.0067 54.6067 37.4067 56.9 40.5C59.2467 43.5933 60.7667 47.3 61.46 51.62H52.26C51.62 47.6733 49.8333 44.5533 46.9 42.26C43.9667 39.9133 40.26 38.74 35.78 38.74C31.5667 38.74 27.86 39.8067 24.66 41.94C21.46 44.02 18.98 46.98 17.22 50.82C15.46 54.6067 14.58 59.06 14.58 64.18C14.58 69.14 15.46 73.5667 17.22 77.46C18.98 81.3 21.4333 84.34 24.58 86.58C27.7267 88.82 31.3533 89.94 35.46 89.94C38.82 89.94 41.78 89.3 44.34 88.02C46.9533 86.6867 49.0067 84.9267 50.5 82.74C52.0467 80.5 52.82 78.02 52.82 75.3V71.22H34.34V63.78H53.7C56.2067 63.78 58.1267 64.4467 59.46 65.78C60.7933 67.1133 61.46 69.0333 61.46 71.54V96.5H53.14V87.06H52.82C51.5933 90.1 49.3533 92.6067 46.1 94.58C42.8467 96.5 38.9267 97.46 34.34 97.46ZM87.68 97.38C82.9333 97.38 79.0667 96.0467 76.08 93.38C73.1467 90.66 71.68 87.1667 71.68 82.9C71.68 78.3667 73.1467 74.8467 76.08 72.34C79.0667 69.78 83.28 68.5 88.72 68.5H102.72V66.1C102.72 62.58 101.76 59.86 99.84 57.94C97.9733 55.9667 95.3333 54.98 91.92 54.98C89.0933 54.98 86.7467 55.6467 84.88 56.98C83.0667 58.26 81.8667 60.1 81.28 62.5H72.48C73.28 57.86 75.44 54.2067 78.96 51.54C82.48 48.8733 86.8533 47.54 92.08 47.54C98 47.54 102.613 49.14 105.92 52.34C109.28 55.54 110.96 60.0467 110.96 65.86V96.5H102.8V88.18H102.48C101.253 91.0067 99.3067 93.2467 96.64 94.9C93.9733 96.5533 90.9867 97.38 87.68 97.38ZM89.44 90.18C91.9467 90.18 94.1867 89.5933 96.16 88.42C98.1867 87.2467 99.7867 85.6733 100.96 83.7C102.133 81.6733 102.72 79.4333 102.72 76.98V75.06H89.28C86.1867 75.06 83.8133 75.7267 82.16 77.06C80.56 78.34 79.76 80.1533 79.76 82.5C79.76 84.8467 80.64 86.7133 82.4 88.1C84.16 89.4867 86.5067 90.18 89.44 90.18ZM125.395 96.5V29.3H134.035V96.5H125.395ZM168.714 97.46C164.394 97.46 160.527 96.4467 157.114 94.42C153.7 92.34 151.007 89.4333 149.034 85.7C147.114 81.9133 146.154 77.46 146.154 72.34C146.154 67.2733 147.114 62.9 149.034 59.22C150.954 55.4867 153.567 52.6067 156.874 50.58C160.18 48.5533 163.967 47.54 168.234 47.54C172.234 47.54 175.78 48.4467 178.874 50.26C182.02 52.0733 184.5 54.6867 186.314 58.1C188.127 61.5133 189.034 65.54 189.034 70.18V74.02H154.474C154.794 78.8733 156.234 82.74 158.794 85.62C161.354 88.5 164.634 89.94 168.634 89.94C171.514 89.94 173.967 89.22 175.994 87.78C178.02 86.34 179.38 84.3667 180.074 81.86H188.874C188.234 85.1133 186.954 87.9133 185.034 90.26C183.114 92.5533 180.767 94.34 177.994 95.62C175.22 96.8467 172.127 97.46 168.714 97.46ZM154.874 67.46H180.634C180.26 63.5133 178.954 60.4467 176.714 58.26C174.474 56.0733 171.62 54.98 168.154 54.98C164.74 54.98 161.86 56.1 159.514 58.34C157.167 60.5267 155.62 63.5667 154.874 67.46Z" fill="#F7F7F7"/>
</svg>
